<?xml version="1.0" encoding="UTF-8"?>
<svg id="Layer_2" data-name="Layer 2" xmlns="http://www.w3.org/2000/svg" viewBox="0 0 717.32 128.01">
  <g id="Layer_1-2" data-name="Layer 1">
    <g>
      <g>
        <path d="m56.89,119.99c-.55-1.49-1.65-2.68-3.1-3.35-2.98-1.37-6.52-.07-7.9,2.92-.66,1.45-.72,3.07-.18,4.55.55,1.49,1.65,2.68,3.1,3.35.8.37,1.65.55,2.48.55,2.25,0,4.42-1.29,5.42-3.46.66-1.45.73-3.07.18-4.55h0Zm-5.59,4.18c-1.17,0-2.12-.95-2.12-2.12s.95-2.13,2.12-2.13,2.13.95,2.13,2.13-.95,2.12-2.13,2.12Z"/>
        <path d="m168.28,119.99c-.55-1.49-1.65-2.68-3.1-3.35-2.98-1.37-6.52-.07-7.89,2.92-.67,1.45-.73,3.07-.18,4.55.55,1.49,1.65,2.68,3.09,3.35.81.37,1.65.55,2.48.55,2.25,0,4.42-1.29,5.42-3.46.67-1.45.73-3.07.18-4.55h0Zm-5.59,4.18c-1.17,0-2.12-.95-2.12-2.12s.95-2.13,2.12-2.13,2.13.95,2.13,2.13-.95,2.12-2.13,2.12Z"/>
        <path d="m179.78,49.37c-3.5-9.46-10.46-16.99-19.63-21.21-18.91-8.7-41.37-.41-50.07,18.5-4.22,9.16-4.62,19.41-1.12,28.87,3.49,9.46,10.46,16.99,19.62,21.21,5.1,2.34,10.45,3.46,15.73,3.46,14.29,0,27.99-8.15,34.35-21.96,4.21-9.16,4.62-19.41,1.12-28.87h0Zm-6.75,26.28c-7.28,15.8-26.06,22.74-41.85,15.46-7.66-3.52-13.48-9.82-16.4-17.73-2.92-7.91-2.59-16.48.94-24.13,5.31-11.54,16.76-18.35,28.71-18.35,4.41,0,8.88.93,13.15,2.89,7.65,3.52,13.48,9.82,16.4,17.73s2.59,16.48-.94,24.13h0Z"/>
        <path d="m118.49,49.4c-1.23,2.46-2.14,5.14-2.64,7.99-1.25,7.07.17,13.99,3.52,19.74l20.43-23.98-21.31-3.76h0Z"/>
        <path d="m143.05,33.33c-10.03.52-19.07,6.22-23.92,14.86l31.19,5.5-7.27-20.37h0Z"/>
        <path d="m170.65,75.52c1.23-2.46,2.14-5.14,2.64-7.99,1.25-7.06-.16-13.98-3.51-19.73l-20.43,23.97,21.31,3.76h-.01Z"/>
        <path d="m169.06,46.63c-4.25-6.57-11.11-11.43-19.42-12.89-1.76-.31-3.51-.46-5.23-.45l10.64,29.78,14.02-16.44h-.01Z"/>
        <path d="m120.09,78.3c4.25,6.57,11.11,11.42,19.42,12.88,1.87.33,3.73.47,5.56.44l-10.96-29.78-14.02,16.46h0Z"/>
        <path d="m146.43,91.57c9.9-.62,18.79-6.29,23.58-14.84l-31.06-5.48s7.48,20.32,7.48,20.32Z"/>
        <path d="m56.41,2.07c-.76-1.31-1.89-2.07-3.07-2.07h-8.52c-1.34,0-2.59.96-3.33,2.57l-1.43,3.11h18.45l-2.09-3.61h0Z"/>
        <path d="m176.08,108.55h-61.48c-6.58,0-11.93-5.35-11.93-11.93v-7.76c0-.92.75-1.67,1.67-1.67s1.67.75,1.67,1.67v7.76c0,4.74,3.85,8.59,8.59,8.59h61.48c4.74,0,8.59-3.85,8.59-8.59V20.72c0-4.74-3.84-7.93-8.58-7.93h-57.33c-3.82,0-7.14,1.9-8.19,5.57l-22.3,78.24c-2,7.03-8.51,11.94-15.82,11.94h-30.83c-9.07,0-16.45-7.38-16.45-16.45V26.14c0-9.07,7.38-16.45,16.45-16.45h53.7c.92,0,1.67.75,1.67,1.67s-.75,1.67-1.67,1.67h-53.7c-7.23,0-13.12,5.88-13.12,13.12v65.95c0,7.23,5.88,13.12,13.12,13.12h30.83c5.83,0,11.02-3.91,12.61-9.52l22.3-78.24c1.45-5.1,5.74-7.68,11.05-7.68h57.68c6.58,0,11.91,4.38,11.91,10.95v75.9c0,6.58-5.35,11.93-11.93,11.93h0Z"/>
        <path d="m196.62,95.07v7.76c0,6.58-5.35,11.93-11.93,11.93h-61.48c-.29,0-.58-.01-.87-.04h-30.05c-.29.02-.58.04-.87.04H29.93c-6.58,0-11.93-5.35-11.93-11.93v-18.81c.01-.18.02-.35.02-.53V22c0-4.74-3.86-8.59-8.59-8.59H1.67c-.92,0-1.67-.75-1.67-1.66s.75-1.67,1.67-1.67h7.76c6.58,0,11.93,5.35,11.93,11.93v61.48c0,.29-.01.58-.04.87v10.51c0,.07.01.13.01.2v7.76c0,4.74,3.86,8.59,8.59,8.59h61.48c.18,0,.35,0,.53-.02h30.75c.18.01.35.02.53.02h61.48c4.74,0,8.59-3.86,8.59-8.59v-7.76c0-.92.75-1.67,1.66-1.67s1.67.75,1.67,1.67h0Z"/>
        <path d="m175.75,26.74c0,2.11-1.71,3.82-3.82,3.82s-3.82-1.71-3.82-3.82,1.71-3.82,3.82-3.82,3.82,1.71,3.82,3.82Z"/>
      </g>
      <g>
        <path d="m209.49,51.35c0-2.91.53-5.79,1.58-8.63s2.59-5.38,4.6-7.62c2.02-2.24,4.48-4.05,7.39-5.44,2.91-1.39,6.22-2.08,9.94-2.08,4.39,0,8.18.96,11.38,2.89s5.58,4.43,7.15,7.52l-7.12,4.9c-.63-1.34-1.39-2.47-2.28-3.39-.9-.92-1.86-1.65-2.89-2.18-1.03-.54-2.1-.93-3.22-1.18s-2.22-.37-3.29-.37c-2.33,0-4.35.47-6.08,1.41-1.72.94-3.16,2.16-4.3,3.66s-2,3.2-2.59,5.1c-.58,1.9-.87,3.79-.87,5.67,0,2.1.34,4.13,1.01,6.08s1.62,3.66,2.85,5.14c1.23,1.48,2.71,2.67,4.43,3.56,1.72.9,3.61,1.34,5.67,1.34,1.07,0,2.19-.13,3.36-.4,1.16-.27,2.27-.69,3.32-1.28,1.05-.58,2.03-1.33,2.92-2.25.9-.92,1.61-2.03,2.15-3.33l7.59,4.37c-.76,1.79-1.85,3.37-3.26,4.73-1.41,1.37-3,2.52-4.77,3.46s-3.66,1.66-5.67,2.15-3.99.74-5.91.74c-3.4,0-6.51-.72-9.33-2.15s-5.25-3.3-7.29-5.61-3.63-4.92-4.77-7.86-1.71-5.92-1.71-8.97v.02Z"/>
        <path d="m284.77,27.84h8.19l18.13,47.68h-9.54l-4.43-11.89h-16.66l-4.37,11.89h-9.54l18.2-47.68h.02Zm10.68,29.28l-6.58-18.74-6.85,18.74h13.43Z"/>
        <path d="m368.66,75.52v-31.56l-12.29,23.51h-5.04l-12.29-23.51v31.56h-9.27V27.84h9.94l14.1,27.13,14.24-27.13h9.87v47.68h-9.27.01Z"/>
        <path d="m429.7,40.33c-.31-.31-.88-.74-1.71-1.28-.83-.54-1.84-1.06-3.02-1.58-1.19-.51-2.47-.95-3.86-1.31-1.39-.36-2.8-.54-4.23-.54-2.55,0-4.46.47-5.71,1.41s-1.88,2.26-1.88,3.96c0,.99.24,1.8.71,2.45s1.15,1.22,2.05,1.71c.9.49,2.03.94,3.39,1.34,1.37.4,2.94.83,4.73,1.28,2.33.63,4.44,1.3,6.35,2.01,1.9.72,3.51,1.61,4.84,2.69,1.32,1.07,2.34,2.36,3.06,3.86s1.07,3.35,1.07,5.54c0,2.55-.48,4.73-1.44,6.55-.96,1.81-2.26,3.28-3.9,4.4-1.64,1.12-3.52,1.94-5.64,2.45-2.13.51-4.35.77-6.68.77-3.58,0-7.12-.54-10.61-1.61-3.49-1.08-6.63-2.6-9.4-4.57l4.1-7.99c.4.4,1.13.93,2.18,1.58s2.29,1.3,3.73,1.95c1.43.65,3.02,1.2,4.77,1.65,1.75.45,3.54.67,5.37.67,5.1,0,7.66-1.63,7.66-4.9,0-1.03-.29-1.9-.87-2.62-.58-.71-1.41-1.34-2.48-1.88s-2.37-1.03-3.9-1.48c-1.52-.45-3.22-.94-5.1-1.48-2.28-.63-4.26-1.31-5.94-2.05-1.68-.74-3.08-1.61-4.2-2.62-1.12-1.01-1.96-2.17-2.52-3.49-.56-1.32-.84-2.9-.84-4.73,0-2.42.45-4.57,1.34-6.45.9-1.88,2.14-3.45,3.73-4.7s3.44-2.2,5.54-2.85,4.37-.97,6.78-.97c3.36,0,6.45.53,9.27,1.58,2.82,1.05,5.28,2.29,7.39,3.73l-4.1,7.52h-.03Z"/>
        <path d="m485.44,75.52V27.91h9.27v22.63l20.01-22.7h10.21l-18.27,21.16,19.41,26.53h-10.41l-14.84-20.62-6.11,6.38v14.24h-9.27Z"/>
        <path d="m557.37,27.84h8.19l18.13,47.68h-9.54l-4.43-11.89h-16.66l-4.37,11.89h-9.54l18.2-47.68h.02Zm10.68,29.28l-6.58-18.74-6.85,18.74h13.43Z"/>
        <path d="m602.36,75.52V27.84h21.09c2.19,0,4.22.46,6.08,1.38,1.86.92,3.46,2.13,4.8,3.63,1.34,1.5,2.39,3.2,3.16,5.1.76,1.9,1.14,3.82,1.14,5.74,0,3.09-.77,5.9-2.32,8.43-1.54,2.53-3.64,4.35-6.28,5.47l10.88,17.93h-10.41l-9.74-15.98h-9.13v15.98h-9.27Zm9.27-24.11h11.62c.85,0,1.64-.2,2.38-.6.74-.4,1.38-.95,1.91-1.65s.96-1.51,1.28-2.45c.31-.94.47-1.95.47-3.02s-.18-2.15-.54-3.09-.84-1.76-1.44-2.45c-.61-.69-1.3-1.23-2.08-1.61s-1.58-.57-2.38-.57h-11.21v15.45h0Z"/>
        <path d="m695.38,35.97h-15.25v39.56h-9.2v-39.56h-15.25v-8.13h39.69v8.13h.01Z"/>
        <path d="m211.67,99.67v-17.41h7.21c.75,0,1.44.16,2.07.48s1.17.74,1.63,1.25.82,1.1,1.08,1.75.39,1.32.39,1.99c0,.72-.12,1.41-.37,2.07s-.59,1.25-1.03,1.75-.97.92-1.58,1.23c-.61.31-1.3.47-2.05.47h-5.64v6.42h-1.72,0Zm1.72-7.94h5.57c.51,0,.97-.11,1.39-.33s.77-.51,1.07-.88c.29-.37.52-.79.69-1.27.16-.48.25-.98.25-1.51s-.09-1.05-.28-1.53c-.19-.48-.44-.9-.76-1.26s-.69-.64-1.13-.85c-.43-.2-.89-.31-1.36-.31h-5.42v7.94h-.02Z"/>
        <path d="m231.83,99.67v-17.41h1.72v17.41h-1.72Z"/>
        <path d="m241.66,90.85c0-1.05.18-2.09.55-3.13.37-1.04.9-1.96,1.61-2.78.7-.82,1.57-1.48,2.6-2,1.03-.51,2.2-.77,3.51-.77,1.55,0,2.88.35,3.98,1.05,1.1.7,1.92,1.62,2.44,2.75l-1.35.83c-.28-.57-.62-1.05-1.02-1.45-.4-.39-.83-.71-1.29-.96s-.93-.42-1.42-.53-.97-.16-1.45-.16c-1.05,0-1.97.21-2.77.64s-1.48.98-2.02,1.67-.96,1.46-1.24,2.32-.42,1.73-.42,2.61c0,.96.17,1.89.5,2.77s.79,1.66,1.37,2.34c.58.68,1.27,1.22,2.06,1.62s1.66.6,2.59.6c.49,0,.99-.06,1.51-.18.52-.12,1.01-.32,1.5-.59.48-.27.93-.6,1.34-1s.75-.89,1.03-1.46l1.42.74c-.28.65-.67,1.23-1.18,1.73-.51.5-1.07.92-1.69,1.26-.62.34-1.28.6-1.97.78s-1.38.27-2.05.27c-1.19,0-2.29-.26-3.29-.79-1-.52-1.85-1.21-2.57-2.05-.72-.84-1.28-1.8-1.68-2.87s-.6-2.16-.6-3.27h0Z"/>
        <path d="m276.72,83.79h-6.2v15.89h-1.72v-15.89h-6.2v-1.52h14.12v1.52h0Z"/>
        <path d="m291.28,98.25c1.09,0,2.01-.21,2.73-.62.73-.42,1.31-.96,1.74-1.64s.74-1.45.91-2.32.26-1.74.26-2.62v-8.78h1.72v8.78c0,1.18-.13,2.29-.39,3.35-.26,1.05-.68,1.98-1.26,2.78-.58.8-1.34,1.44-2.27,1.91s-2.07.71-3.41.71-2.53-.25-3.47-.75-1.7-1.16-2.27-1.97c-.57-.82-.98-1.75-1.23-2.8s-.37-2.12-.37-3.24v-8.78h1.69v8.78c0,.92.09,1.81.27,2.67.18.87.49,1.63.92,2.3.43.67,1.01,1.21,1.73,1.62s1.62.61,2.7.61h0Z"/>
        <path d="m307.64,99.67v-17.41h7.36c.75,0,1.44.16,2.07.48s1.17.74,1.63,1.25.81,1.1,1.07,1.75c.25.65.38,1.32.38,1.99s-.09,1.25-.28,1.83-.45,1.1-.78,1.57-.74.86-1.21,1.18-1,.54-1.59.65l4.27,6.72h-1.94l-4.09-6.42h-5.15v6.42h-1.74Zm1.72-7.94h5.69c.51,0,.97-.11,1.39-.33s.77-.52,1.07-.89c.29-.38.52-.8.69-1.28.16-.47.25-.97.25-1.5s-.09-1.03-.28-1.51-.44-.9-.76-1.26-.69-.65-1.13-.86c-.43-.21-.89-.32-1.36-.32h-5.54v7.94h-.02Z"/>
        <path d="m340.25,98.15v1.52h-11.7v-17.41h11.47v1.52h-9.76v6.28h8.51v1.45h-8.51v6.64h9.99Z"/>
        <path d="m359.54,99.67v-17.41h7.21c.75,0,1.44.16,2.07.48s1.17.74,1.63,1.25.82,1.1,1.08,1.75c.26.65.39,1.32.39,1.99,0,.72-.12,1.41-.37,2.07s-.59,1.25-1.03,1.75-.97.92-1.58,1.23c-.61.31-1.3.47-2.05.47h-5.64v6.42h-1.72,0Zm1.72-7.94h5.57c.51,0,.97-.11,1.39-.33s.77-.51,1.07-.88c.29-.37.52-.79.69-1.27.16-.48.25-.98.25-1.51s-.09-1.05-.28-1.53c-.19-.48-.44-.9-.76-1.26s-.69-.64-1.13-.85c-.43-.2-.89-.31-1.36-.31h-5.42v7.94h-.02Z"/>
        <path d="m391.39,98.15v1.52h-11.7v-17.41h11.47v1.52h-9.76v6.28h8.51v1.45h-8.51v6.64h9.99Z"/>
        <path d="m399.53,99.67v-17.41h7.36c.75,0,1.44.16,2.07.48s1.17.74,1.63,1.25.81,1.1,1.07,1.75c.25.65.38,1.32.38,1.99s-.09,1.25-.28,1.83-.45,1.1-.78,1.57-.74.86-1.21,1.18-1,.54-1.59.65l4.27,6.72h-1.94l-4.09-6.42h-5.15v6.42h-1.74Zm1.72-7.94h5.69c.51,0,.97-.11,1.39-.33s.77-.52,1.07-.89c.29-.38.52-.8.69-1.28.16-.47.25-.97.25-1.5s-.09-1.03-.28-1.51-.44-.9-.76-1.26-.69-.65-1.13-.86c-.43-.21-.89-.32-1.36-.32h-5.54v7.94h-.02Z"/>
        <path d="m420.45,99.67v-17.41h11.43v1.52h-9.71v6.4h8.19v1.42h-8.19v8.07s-1.72,0-1.72,0Z"/>
        <path d="m451.49,98.15v1.52h-11.7v-17.41h11.47v1.52h-9.76v6.28h8.51v1.45h-8.51v6.64h9.99Z"/>
        <path d="m458.11,90.85c0-1.05.18-2.09.55-3.13s.9-1.96,1.61-2.78c.7-.82,1.57-1.48,2.6-2,1.03-.51,2.2-.77,3.51-.77,1.55,0,2.88.35,3.98,1.05,1.1.7,1.92,1.62,2.44,2.75l-1.35.83c-.28-.57-.62-1.05-1.02-1.45-.4-.39-.83-.71-1.29-.96s-.93-.42-1.42-.53c-.49-.11-.97-.16-1.45-.16-1.05,0-1.97.21-2.77.64s-1.48.98-2.02,1.67-.96,1.46-1.24,2.32-.42,1.73-.42,2.61c0,.96.17,1.89.5,2.77s.79,1.66,1.37,2.34c.58.68,1.27,1.22,2.06,1.62s1.66.6,2.59.6c.49,0,.99-.06,1.51-.18.52-.12,1.01-.32,1.5-.59.48-.27.93-.6,1.34-1s.75-.89,1.03-1.46l1.42.74c-.28.65-.67,1.23-1.18,1.73-.51.5-1.07.92-1.69,1.26-.62.34-1.28.6-1.97.78s-1.38.27-2.05.27c-1.19,0-2.29-.26-3.29-.79-1-.52-1.85-1.21-2.57-2.05-.72-.84-1.28-1.8-1.68-2.87s-.6-2.16-.6-3.27h0Z"/>
        <path d="m493.17,83.79h-6.2v15.89h-1.72v-15.89h-6.2v-1.52h14.12v1.52h0Z"/>
        <path d="m521.32,85.53c-.49-.56-1.14-1-1.96-1.35-.82-.34-1.75-.51-2.8-.51-1.54,0-2.66.29-3.36.87s-1.05,1.37-1.05,2.37c0,.52.09.95.28,1.29.19.34.48.63.87.87s.9.46,1.51.64,1.34.36,2.17.54c.93.2,1.77.42,2.51.66.74.25,1.38.55,1.9.92.52.37.92.81,1.2,1.34.28.52.42,1.18.42,1.96s-.16,1.5-.47,2.08c-.31.59-.74,1.08-1.3,1.47s-1.22.68-1.99.87-1.61.28-2.53.28c-2.7,0-5.03-.84-6.99-2.53l.86-1.4c.31.33.68.64,1.12.93.43.29.92.55,1.45.77.53.22,1.1.39,1.7.52.6.12,1.24.18,1.91.18,1.39,0,2.47-.25,3.25-.75s1.16-1.25,1.16-2.27c0-.54-.11-.99-.33-1.36-.22-.37-.55-.69-.99-.96s-.99-.5-1.64-.7-1.41-.39-2.28-.59c-.92-.21-1.72-.43-2.4-.66-.69-.23-1.27-.51-1.74-.86-.47-.34-.83-.76-1.07-1.24-.24-.48-.36-1.08-.36-1.78,0-.8.15-1.52.45-2.15.3-.63.73-1.15,1.29-1.57.56-.42,1.21-.74,1.96-.96s1.58-.33,2.5-.33c1.16,0,2.19.18,3.1.53s1.73.85,2.46,1.48l-.83,1.37.02.03Z"/>
        <path d="m543.16,83.79h-6.2v15.89h-1.72v-15.89h-6.2v-1.52h14.12v1.52Z"/>
        <path d="m554.34,82.27h1.45l7.23,17.41h-1.81l-2.26-5.44h-7.82l-2.23,5.44h-1.84s7.28-17.41,7.28-17.41Zm4.22,10.62l-3.51-8.61-3.56,8.61h7.07Z"/>
        <path d="m570.43,99.67v-17.41h7.36c.75,0,1.44.16,2.07.48s1.17.74,1.63,1.25.81,1.1,1.07,1.75c.25.65.38,1.32.38,1.99s-.09,1.25-.28,1.83-.45,1.1-.78,1.57-.74.86-1.21,1.18c-.47.32-1,.54-1.59.65l4.27,6.72h-1.94l-4.09-6.42h-5.15v6.42h-1.74Zm1.72-7.94h5.69c.51,0,.97-.11,1.39-.33s.77-.52,1.07-.89c.29-.38.52-.8.69-1.28.16-.47.25-.97.25-1.5s-.09-1.03-.28-1.51-.44-.9-.76-1.26-.69-.65-1.13-.86c-.43-.21-.89-.32-1.36-.32h-5.54v7.94h-.02Z"/>
        <path d="m603.43,83.79h-6.2v15.89h-1.72v-15.89h-6.2v-1.52h14.12v1.52Z"/>
        <path d="m621.11,85.53c-.49-.56-1.14-1-1.96-1.35-.82-.34-1.75-.51-2.79-.51-1.54,0-2.66.29-3.36.87s-1.05,1.37-1.05,2.37c0,.52.09.95.28,1.29.19.34.48.63.87.87s.89.46,1.51.64c.61.18,1.34.36,2.17.54.93.2,1.77.42,2.51.66.74.25,1.38.55,1.9.92.52.37.92.81,1.2,1.34.28.52.42,1.18.42,1.96s-.16,1.5-.47,2.08c-.31.59-.74,1.08-1.3,1.47s-1.22.68-1.99.87-1.61.28-2.53.28c-2.7,0-5.03-.84-6.99-2.53l.86-1.4c.31.33.68.64,1.12.93.43.29.92.55,1.45.77s1.1.39,1.7.52c.6.12,1.24.18,1.91.18,1.39,0,2.47-.25,3.25-.75s1.16-1.25,1.16-2.27c0-.54-.11-.99-.33-1.36-.22-.37-.55-.69-.99-.96s-.99-.5-1.64-.7-1.41-.39-2.28-.59c-.92-.21-1.72-.43-2.4-.66-.69-.23-1.27-.51-1.74-.86-.47-.34-.83-.76-1.07-1.24-.24-.48-.36-1.08-.36-1.78,0-.8.15-1.52.45-2.15.3-.63.73-1.15,1.29-1.57s1.21-.74,1.96-.96,1.59-.33,2.5-.33c1.16,0,2.19.18,3.1.53s1.73.85,2.46,1.48l-.83,1.37v.03Z"/>
        <path d="m655.61,82.27v17.41h-1.69v-8.14h-10.32v8.14h-1.72v-17.41h1.72v7.75h10.32v-7.75s1.69,0,1.69,0Z"/>
        <path d="m676.57,98.15v1.52h-11.7v-17.41h11.47v1.52h-9.76v6.28h8.51v1.45h-8.51v6.64h9.99Z"/>
        <path d="m684.71,99.67v-17.41h7.36c.75,0,1.44.16,2.07.48s1.17.74,1.63,1.25.81,1.1,1.07,1.75c.25.65.38,1.32.38,1.99s-.09,1.25-.28,1.83-.45,1.1-.78,1.57-.74.86-1.21,1.18c-.47.32-1,.54-1.59.65l4.27,6.72h-1.94l-4.09-6.42h-5.15v6.42h-1.74Zm1.72-7.94h5.69c.51,0,.97-.11,1.38-.33.42-.22.77-.52,1.07-.89.29-.38.52-.8.69-1.28.16-.47.25-.97.25-1.5s-.09-1.03-.28-1.51-.44-.9-.76-1.26-.7-.65-1.13-.86-.89-.32-1.36-.32h-5.54v7.94h-.01Z"/>
        <path d="m717.32,98.15v1.52h-11.7v-17.41h11.47v1.52h-9.76v6.28h8.51v1.45h-8.51v6.64h9.99Z"/>
      </g>
    </g>
  </g>
</svg>