<?xml version="1.0" encoding="UTF-8"?>
<svg id="Layer_2" data-name="Layer 2" xmlns="http://www.w3.org/2000/svg" viewBox="0 0 19.29 15.88">
  <defs>
    <style>
      .cls-1 {
        fill: #fff;
      }
    </style>
  </defs>
  <g id="ELEMENTS">
    <path class="cls-1" d="m19.22,1.9c-.61.28-1.29.45-1.95.56.31-.05.77-.62.96-.85.28-.35.52-.75.65-1.18.02-.03.03-.08,0-.1-.04-.02-.07,0-.1,0-.74.4-1.5.68-2.31.89-.07.02-.12,0-.16-.04-.07-.08-.13-.15-.2-.21-.34-.29-.71-.52-1.12-.69-.54-.22-1.13-.31-1.72-.28-.57.04-1.13.2-1.63.46-.51.26-.96.63-1.32,1.07-.37.46-.65,1-.79,1.57-.14.55-.12,1.1-.04,1.66.01.09,0,.11-.08.09-3.18-.47-5.81-1.61-7.95-4.05-.09-.11-.14-.11-.22,0-.94,1.4-.48,3.66.69,4.76.16.15.32.3.49.43-.06.01-.84-.07-1.53-.43-.09-.06-.14-.03-.15.08,0,.15,0,.29.03.46.18,1.42,1.16,2.74,2.51,3.25.16.07.34.13.51.16-.31.07-.62.12-1.5.05-.11-.02-.15.03-.11.14.66,1.8,2.09,2.34,3.16,2.65.14.02.29.02.43.06,0,.01-.02.01-.03.03-.35.54-1.59.94-2.16,1.14-1.04.36-2.18.53-3.28.42-.18-.03-.21-.02-.26,0-.05.03,0,.07.05.12.22.15.45.28.68.4.7.37,1.43.67,2.19.88,3.94,1.09,8.38.29,11.33-2.65,2.32-2.31,3.14-5.49,3.14-8.68,0-.12.15-.19.23-.26.6-.45,1.09-1,1.54-1.6.1-.14.1-.26.1-.31v-.02c0-.05,0-.04-.08,0Z"/>
  </g>
</svg>