<svg width="27" height="28" viewBox="0 0 27 28" fill="none" xmlns="http://www.w3.org/2000/svg">
<path d="M26.1945 4.75672C25.5377 3.95938 24.5646 3.49891 23.5385 3.5H4.89248L4.84382 3.09039C4.63839 1.32891 3.16308 0.00109375 1.40936 0H1.15311C0.516278 0 0 0.522266 0 1.16648C0 1.8107 0.516278 2.33297 1.15311 2.33297H1.40936C1.99429 2.33297 2.48624 2.77594 2.55436 3.36328L4.14104 17.0133C4.48216 19.9516 6.94354 22.1665 9.86821 22.1665H21.9118C22.5487 22.1665 23.0649 21.6442 23.0649 21C23.0649 20.3558 22.5487 19.8335 21.9118 19.8335H9.86821C8.40533 19.8291 7.10356 18.8951 6.61593 17.5H20.363C23.1531 17.5 25.5436 15.4793 26.0383 12.7017L26.9438 7.6218C27.1265 6.60133 26.8524 5.55188 26.1945 4.75672ZM24.6803 7.20781L23.7737 12.2877C23.4763 13.9563 22.0394 15.1698 20.3635 15.167H6.24994L5.16494 5.83352H23.539C24.1759 5.82969 24.6954 6.34867 24.6992 6.99344C24.6992 7.06562 24.6927 7.13672 24.6803 7.20781Z" fill="black"/>
<path d="M8.07288 28C9.34687 28 10.3796 26.9553 10.3796 25.6665C10.3796 24.3778 9.34687 23.333 8.07288 23.333C6.79889 23.333 5.76611 24.3778 5.76611 25.6665C5.76611 26.9553 6.79889 28 8.07288 28Z" fill="black"/>
<path d="M19.6061 28C20.8801 28 21.9129 26.9553 21.9129 25.6665C21.9129 24.3778 20.8801 23.333 19.6061 23.333C18.3322 23.333 17.2994 24.3778 17.2994 25.6665C17.2994 26.9553 18.3322 28 19.6061 28Z" fill="black"/>
</svg>
