<?xml version="1.0" encoding="UTF-8"?>
<svg id="Layer_2" data-name="Layer 2" xmlns="http://www.w3.org/2000/svg" viewBox="0 0 20.74 20.74">
  <defs>
    <style>
      .cls-1 {
        fill: #fff;
      }
    </style>
  </defs>
  <g id="ELEMENTS">
    <g>
      <path class="cls-1" d="m15.86,3.7c-.67,0-1.22.54-1.22,1.22s.54,1.22,1.22,1.22,1.22-.54,1.22-1.22-.54-1.22-1.22-1.22Z"/>
      <path class="cls-1" d="m10.46,5.26c-2.82,0-5.11,2.29-5.11,5.11s2.29,5.11,5.11,5.11,5.11-2.29,5.11-5.11-2.29-5.11-5.11-5.11Zm0,8.38c-1.8,0-3.27-1.47-3.27-3.27s1.47-3.27,3.27-3.27,3.27,1.47,3.27,3.27-1.47,3.27-3.27,3.27Z"/>
      <path class="cls-1" d="m14.51,20.74H6.23c-3.44,0-6.23-2.8-6.23-6.23V6.23C0,2.79,2.79,0,6.23,0h8.28c3.44,0,6.23,2.79,6.23,6.23v8.28c0,3.44-2.8,6.23-6.23,6.23ZM6.23,1.95C3.87,1.95,1.95,3.87,1.95,6.23v8.28c0,2.36,1.92,4.28,4.28,4.28h8.28c2.36,0,4.28-1.92,4.28-4.28V6.23c0-2.36-1.92-4.28-4.28-4.28H6.23Z"/>
    </g>
  </g>
</svg>