<?xml version="1.0" encoding="UTF-8"?>
<svg id="Layer_2" data-name="Layer 2" xmlns="http://www.w3.org/2000/svg" viewBox="0 0 23.6 18.17">
  <defs>
    <style>
      .cls-1 {
        fill: #fff;
      }
    </style>
  </defs>
  <g id="ELEMENTS">
    <g>
      <path class="cls-1" d="m1.76.25l8.2,9.31c.47.53,1.14.83,1.84.83s1.38-.3,1.84-.83L21.71.41c.07-.08.15-.13.23-.18-.34-.15-.72-.23-1.11-.23H2.79c-.38,0-.74.08-1.07.21.01.01.03.02.04.04Z"/>
      <path class="cls-1" d="m23.18,1.31c-.04.09-.09.19-.16.27l-8.06,9.14c-.8.91-1.95,1.43-3.16,1.43s-2.36-.52-3.16-1.43L.44,1.41s-.03-.04-.04-.06c-.25.42-.4.91-.4,1.44v12.6c0,1.54,1.25,2.79,2.79,2.79h18.03c1.54,0,2.79-1.25,2.79-2.79V2.79c0-.54-.16-1.05-.43-1.48Z"/>
    </g>
  </g>
</svg>