<svg width="32" height="32" viewBox="0 0 32 32" fill="none" xmlns="http://www.w3.org/2000/svg">
<g clip-path="url(#clip0_1_25)">
<path d="M31.716 28.4829L30.9098 27.681H30.9084L30.7742 27.5466L30.6813 27.4542L30.6789 27.4556L29.9781 26.7684L22.9895 19.9218C24.4718 17.8588 25.3529 15.3383 25.3529 12.6097C25.3529 5.64573 19.6778 0 12.6755 0C5.67317 0 0 5.64573 0 12.6097C0 19.5737 5.67506 25.2176 12.6755 25.2176C15.2712 25.2176 17.68 24.4408 19.6906 23.1097L26.7251 30.0021L27.5208 30.7822L27.6 30.8605L28.463 31.717C29.0155 32.2679 30.1919 31.9896 31.091 31.0968C31.9896 30.202 32.2689 29.0323 31.716 28.4829ZM12.849 21.475C7.92698 21.475 3.93575 17.5065 3.93575 12.6097C3.93575 7.713 7.92698 3.74401 12.849 3.74401C17.7711 3.74401 21.7623 7.71252 21.7623 12.6097C21.7623 17.5069 17.772 21.475 12.849 21.475Z" fill="black"/>
</g>
<defs>
<clipPath id="clip0_1_25">
<rect width="32" height="32" fill="white"/>
</clipPath>
</defs>
</svg>
